<svg width="46" height="49" viewBox="0 0 46 49" fill="none" xmlns="http://www.w3.org/2000/svg">
<mask id="path-1-inside-1_10_21" fill="white">
<path d="M11.7851 23.5703L0 31.934V48.2811H11.7851V23.5703Z"/>
</mask>
<path d="M11.7851 23.5703L0 31.934V48.2811H11.7851V23.5703Z" fill="#D9D9D9"/>
<path d="M11.8951 23.7253C11.8218 23.622 11.7485 23.5186 11.6751 23.4153C10.7605 24.0644 9.84582 24.7135 8.93117 25.3626C8.36904 25.7616 7.80691 26.1605 7.24478 26.5594C4.79319 28.2993 2.34159 30.0391 -0.11001 31.7789L-0.190083 31.8358V31.934C-0.190083 34.5356 -0.190083 37.1372 -0.190083 39.7389C-0.190083 42.5863 -0.190083 45.4337 -0.190083 48.2811V48.4712H0C2.76045 48.4712 5.5209 48.4712 8.28135 48.4712C9.44928 48.4712 10.6172 48.4712 11.7851 48.4712H11.9752V48.2811C11.9752 43.8411 11.9752 39.4012 11.9752 34.9613C11.9752 32.2859 11.9752 29.6104 11.9752 26.935C11.9752 25.8135 11.9752 24.6919 11.9752 23.5703C11.8485 23.5703 11.7218 23.5703 11.595 23.5703C11.595 24.6919 11.595 25.8135 11.595 26.935C11.595 29.6104 11.595 32.2859 11.595 34.9613C11.595 39.4012 11.595 43.8411 11.595 48.2811L11.7851 48.091C10.6172 48.091 9.44928 48.091 8.28135 48.091C5.5209 48.091 2.76045 48.091 0 48.091L0.190083 48.2811C0.190083 45.4337 0.190083 42.5863 0.190083 39.7389C0.190083 37.1372 0.190083 34.5356 0.190083 31.934L0.11001 32.089C2.56161 30.3491 5.01321 28.6093 7.4648 26.8694C8.02693 26.4705 8.58906 26.0716 9.15119 25.6727C10.0658 25.0235 10.9805 24.3744 11.8951 23.7253ZM11.6751 23.4153L11.8951 23.7253L11.595 23.5703H11.9752V23.2023L11.6751 23.4153Z" fill="black" mask="url(#path-1-inside-1_10_21)"/>
<path d="M17.1074 8.36364L28.8926 0V48.281H17.1074V8.36364Z" fill="#D9D9D9"/>
<path d="M34.2149 14.4463L46 26.4215V48.281H34.2149V14.4463Z" fill="#D9D9D9"/>
</svg>
