<svg width="16" height="15" viewBox="0 0 16 15" fill="none" xmlns="http://www.w3.org/2000/svg">
<path d="M0 0.603773C0 0.270318 0.270319 0 0.603773 0H15.3962C15.7297 0 16 0.270319 16 0.603773V14.1769C16 14.6467 15.4872 14.9365 15.0848 14.6941L8.2346 10.5692C8.04133 10.4528 7.79931 10.4539 7.60709 10.572L0.919816 14.6802C0.517527 14.9273 0 14.6379 0 14.1658V0.603773Z" fill="url(#paint0_linear_102_180)"/>
<path d="M0.452885 0.905612C0.452885 0.572157 0.723203 0.301839 1.05666 0.301839H14.9434C15.2769 0.301839 15.5472 0.572158 15.5472 0.905613V13.4296C15.5472 13.8977 15.0375 14.1877 14.6351 13.9486L8.23605 10.1472C8.04434 10.0334 7.80545 10.0344 7.61475 10.15L1.36959 13.9349C0.967217 14.1788 0.452885 13.8891 0.452885 13.4186V0.905612Z" fill="#2F2F2F"/>
<defs>
<linearGradient id="paint0_linear_102_180" x1="8" y1="0" x2="8" y2="15.2453" gradientUnits="userSpaceOnUse">
<stop stop-color="#FFC400"/>
<stop offset="1" stop-color="#7C6004"/>
</linearGradient>
</defs>
</svg>
